<mxfile host="app.diagrams.net" modified="2021-07-29T15:40:15.942Z" agent="5.0 (Windows NT 10.0; Win64; x64) AppleWebKit/537.36 (KHTML, like Gecko) Chrome/92.0.4515.107 Safari/537.36" etag="VbTNDNyDofpmTz1ZRIe-" version="14.9.2" type="github">
  <diagram id="yloKVGUy7-X93dTx5KeP" name="Page-1">
    <mxGraphModel dx="1117" dy="669" grid="1" gridSize="10" guides="1" tooltips="1" connect="1" arrows="1" fold="1" page="1" pageScale="1" pageWidth="850" pageHeight="1100" math="0" shadow="0">
      <root>
        <mxCell id="0" />
        <mxCell id="1" parent="0" />
        <mxCell id="zmLafdnfllcvaD3QAqa4-16" value="" style="endArrow=none;html=1;strokeWidth=15;shadow=0;sketch=0;jumpStyle=none;strokeColor=#666666;fontFamily=Times New Roman;" edge="1" parent="1">
          <mxGeometry width="50" height="50" relative="1" as="geometry">
            <mxPoint x="180" y="330" as="sourcePoint" />
            <mxPoint x="670" y="170" as="targetPoint" />
          </mxGeometry>
        </mxCell>
        <mxCell id="zmLafdnfllcvaD3QAqa4-27" value="" style="ellipse;whiteSpace=wrap;html=1;aspect=fixed;fontFamily=Times New Roman;" vertex="1" parent="1">
          <mxGeometry x="586" y="266" width="168" height="168" as="geometry" />
        </mxCell>
        <mxCell id="zmLafdnfllcvaD3QAqa4-17" value="" style="endArrow=none;html=1;strokeWidth=15;strokeColor=#666666;fontFamily=Times New Roman;" edge="1" parent="1">
          <mxGeometry width="50" height="50" relative="1" as="geometry">
            <mxPoint x="730" y="290" as="sourcePoint" />
            <mxPoint x="670" y="170" as="targetPoint" />
          </mxGeometry>
        </mxCell>
        <mxCell id="zmLafdnfllcvaD3QAqa4-21" value="" style="ellipse;whiteSpace=wrap;html=1;aspect=fixed;fontFamily=Times New Roman;" vertex="1" parent="1">
          <mxGeometry x="660" y="160" width="20" height="20" as="geometry" />
        </mxCell>
        <mxCell id="zmLafdnfllcvaD3QAqa4-23" value="" style="endArrow=none;html=1;strokeWidth=15;entryX=0.5;entryY=0.5;entryDx=0;entryDy=0;entryPerimeter=0;strokeColor=#666666;fontFamily=Times New Roman;" edge="1" parent="1" target="zmLafdnfllcvaD3QAqa4-22">
          <mxGeometry width="50" height="50" relative="1" as="geometry">
            <mxPoint x="180" y="430" as="sourcePoint" />
            <mxPoint x="210" y="350" as="targetPoint" />
          </mxGeometry>
        </mxCell>
        <mxCell id="zmLafdnfllcvaD3QAqa4-22" value="" style="ellipse;whiteSpace=wrap;html=1;aspect=fixed;fontFamily=Times New Roman;" vertex="1" parent="1">
          <mxGeometry x="170" y="320" width="20" height="20" as="geometry" />
        </mxCell>
        <mxCell id="zmLafdnfllcvaD3QAqa4-24" value="" style="endArrow=none;html=1;strokeWidth=15;strokeColor=#666666;fontFamily=Times New Roman;" edge="1" parent="1">
          <mxGeometry width="50" height="50" relative="1" as="geometry">
            <mxPoint x="130" y="430" as="sourcePoint" />
            <mxPoint x="240" y="430" as="targetPoint" />
          </mxGeometry>
        </mxCell>
        <mxCell id="zmLafdnfllcvaD3QAqa4-25" value="" style="ellipse;whiteSpace=wrap;html=1;aspect=fixed;fontFamily=Times New Roman;" vertex="1" parent="1">
          <mxGeometry x="720" y="280" width="20" height="20" as="geometry" />
        </mxCell>
        <mxCell id="zmLafdnfllcvaD3QAqa4-26" value="" style="endArrow=none;html=1;strokeWidth=2;fontFamily=Times New Roman;" edge="1" parent="1" target="zmLafdnfllcvaD3QAqa4-25">
          <mxGeometry width="50" height="50" relative="1" as="geometry">
            <mxPoint x="670" y="350" as="sourcePoint" />
            <mxPoint x="590" y="270" as="targetPoint" />
          </mxGeometry>
        </mxCell>
        <mxCell id="zmLafdnfllcvaD3QAqa4-28" value="" style="endArrow=none;html=1;strokeWidth=2;entryX=1;entryY=0.5;entryDx=0;entryDy=0;fontFamily=Times New Roman;" edge="1" parent="1" target="zmLafdnfllcvaD3QAqa4-27">
          <mxGeometry width="50" height="50" relative="1" as="geometry">
            <mxPoint x="670" y="350" as="sourcePoint" />
            <mxPoint x="850" y="190" as="targetPoint" />
          </mxGeometry>
        </mxCell>
        <mxCell id="zmLafdnfllcvaD3QAqa4-29" value="" style="ellipse;whiteSpace=wrap;html=1;aspect=fixed;fillColor=#1A1A1A;fontFamily=Times New Roman;" vertex="1" parent="1">
          <mxGeometry x="666" y="346" width="8" height="8" as="geometry" />
        </mxCell>
        <mxCell id="zmLafdnfllcvaD3QAqa4-30" value="" style="endArrow=none;html=1;strokeWidth=2;fontFamily=Times New Roman;" edge="1" parent="1" target="zmLafdnfllcvaD3QAqa4-21">
          <mxGeometry width="50" height="50" relative="1" as="geometry">
            <mxPoint x="610" y="50" as="sourcePoint" />
            <mxPoint x="670" y="170" as="targetPoint" />
          </mxGeometry>
        </mxCell>
        <mxCell id="zmLafdnfllcvaD3QAqa4-31" value="" style="endArrow=none;html=1;strokeWidth=2;fontFamily=Times New Roman;" edge="1" parent="1">
          <mxGeometry width="50" height="50" relative="1" as="geometry">
            <mxPoint x="124" y="220" as="sourcePoint" />
            <mxPoint x="179.52786404500057" y="331.05572809000097" as="targetPoint" />
          </mxGeometry>
        </mxCell>
        <mxCell id="zmLafdnfllcvaD3QAqa4-32" value="" style="ellipse;whiteSpace=wrap;html=1;aspect=fixed;fillColor=#FFFFFF;fontFamily=Times New Roman;" vertex="1" parent="1">
          <mxGeometry x="425" y="150" width="80" height="80" as="geometry" />
        </mxCell>
        <mxCell id="zmLafdnfllcvaD3QAqa4-34" style="edgeStyle=orthogonalEdgeStyle;rounded=0;orthogonalLoop=1;jettySize=auto;html=1;strokeWidth=2;exitX=0.5;exitY=0.513;exitDx=0;exitDy=0;exitPerimeter=0;fontFamily=Times New Roman;" edge="1" parent="1" target="zmLafdnfllcvaD3QAqa4-62">
          <mxGeometry relative="1" as="geometry">
            <mxPoint x="467" y="370.96" as="targetPoint" />
            <mxPoint x="467" y="192.00000000000009" as="sourcePoint" />
            <Array as="points">
              <mxPoint x="467" y="260.96" />
              <mxPoint x="467" y="260.96" />
            </Array>
          </mxGeometry>
        </mxCell>
        <mxCell id="zmLafdnfllcvaD3QAqa4-43" value="" style="endArrow=classic;startArrow=classic;html=1;strokeWidth=2;fontFamily=Times New Roman;" edge="1" parent="1">
          <mxGeometry width="50" height="50" relative="1" as="geometry">
            <mxPoint x="467" y="192" as="sourcePoint" />
            <mxPoint x="651" y="130" as="targetPoint" />
          </mxGeometry>
        </mxCell>
        <mxCell id="zmLafdnfllcvaD3QAqa4-44" value="" style="endArrow=classic;startArrow=classic;html=1;strokeWidth=2;fontFamily=Times New Roman;" edge="1" parent="1">
          <mxGeometry width="50" height="50" relative="1" as="geometry">
            <mxPoint x="380" y="220" as="sourcePoint" />
            <mxPoint x="467" y="192" as="targetPoint" />
          </mxGeometry>
        </mxCell>
        <mxCell id="zmLafdnfllcvaD3QAqa4-45" value="" style="endArrow=classic;html=1;strokeWidth=2;fontFamily=Times New Roman;" edge="1" parent="1" target="zmLafdnfllcvaD3QAqa4-69">
          <mxGeometry width="50" height="50" relative="1" as="geometry">
            <mxPoint x="180" y="330" as="sourcePoint" />
            <mxPoint x="290" y="330" as="targetPoint" />
          </mxGeometry>
        </mxCell>
        <mxCell id="zmLafdnfllcvaD3QAqa4-46" value="" style="endArrow=classic;html=1;strokeWidth=2;fontFamily=Times New Roman;" edge="1" parent="1">
          <mxGeometry width="50" height="50" relative="1" as="geometry">
            <mxPoint x="180" y="330" as="sourcePoint" />
            <mxPoint x="180" y="140" as="targetPoint" />
          </mxGeometry>
        </mxCell>
        <mxCell id="zmLafdnfllcvaD3QAqa4-50" value="" style="endArrow=classic;html=1;strokeWidth=2;entryX=0.645;entryY=0.046;entryDx=0;entryDy=0;entryPerimeter=0;fontFamily=Times New Roman;" edge="1" parent="1" target="zmLafdnfllcvaD3QAqa4-32">
          <mxGeometry width="50" height="50" relative="1" as="geometry">
            <mxPoint x="467" y="192" as="sourcePoint" />
            <mxPoint x="470" y="140" as="targetPoint" />
          </mxGeometry>
        </mxCell>
        <mxCell id="zmLafdnfllcvaD3QAqa4-52" value="" style="endArrow=classic;startArrow=classic;html=1;strokeWidth=2;fontFamily=Times New Roman;" edge="1" parent="1">
          <mxGeometry width="50" height="50" relative="1" as="geometry">
            <mxPoint x="140" y="240" as="sourcePoint" />
            <mxPoint x="620" y="70" as="targetPoint" />
          </mxGeometry>
        </mxCell>
        <mxCell id="zmLafdnfllcvaD3QAqa4-53" value="&lt;font style=&quot;font-size: 20px&quot;&gt;Motor&lt;/font&gt;" style="text;html=1;strokeColor=none;fillColor=none;align=center;verticalAlign=middle;whiteSpace=wrap;rounded=0;fontFamily=Times New Roman;" vertex="1" parent="1">
          <mxGeometry x="650" y="370" width="40" height="20" as="geometry" />
        </mxCell>
        <mxCell id="zmLafdnfllcvaD3QAqa4-54" value="&lt;font style=&quot;font-size: 20px&quot;&gt;Ball&lt;/font&gt;" style="text;html=1;strokeColor=none;fillColor=none;align=center;verticalAlign=middle;whiteSpace=wrap;rounded=0;fontFamily=Times New Roman;" vertex="1" parent="1">
          <mxGeometry x="385" y="160" width="40" height="20" as="geometry" />
        </mxCell>
        <mxCell id="zmLafdnfllcvaD3QAqa4-55" value="&lt;font style=&quot;font-size: 20px&quot;&gt;Beam&lt;/font&gt;" style="text;html=1;strokeColor=none;fillColor=none;align=center;verticalAlign=middle;whiteSpace=wrap;rounded=0;rotation=-15;fontFamily=Times New Roman;" vertex="1" parent="1">
          <mxGeometry x="250" y="266" width="40" height="20" as="geometry" />
        </mxCell>
        <mxCell id="zmLafdnfllcvaD3QAqa4-57" value="&lt;font style=&quot;font-size: 20px&quot;&gt;R&lt;/font&gt;" style="text;html=1;strokeColor=none;fillColor=none;align=center;verticalAlign=middle;whiteSpace=wrap;rounded=0;fontFamily=Times New Roman;" vertex="1" parent="1">
          <mxGeometry x="440" y="160" width="40" height="20" as="geometry" />
        </mxCell>
        <mxCell id="zmLafdnfllcvaD3QAqa4-58" value="&lt;font style=&quot;font-size: 20px&quot;&gt;y&lt;/font&gt;" style="text;html=1;strokeColor=none;fillColor=none;align=center;verticalAlign=middle;whiteSpace=wrap;rounded=0;fontFamily=Times New Roman;" vertex="1" parent="1">
          <mxGeometry x="160" y="110" width="40" height="20" as="geometry" />
        </mxCell>
        <mxCell id="zmLafdnfllcvaD3QAqa4-59" value="&lt;font style=&quot;font-size: 20px&quot;&gt;L&lt;/font&gt;" style="text;html=1;strokeColor=none;fillColor=none;align=center;verticalAlign=middle;whiteSpace=wrap;rounded=0;rotation=-15;fontFamily=Times New Roman;" vertex="1" parent="1">
          <mxGeometry x="345" y="130" width="40" height="20" as="geometry" />
        </mxCell>
        <mxCell id="zmLafdnfllcvaD3QAqa4-60" value="" style="endArrow=classic;html=1;shadow=0;strokeWidth=2;fontFamily=Times New Roman;" edge="1" parent="1" target="zmLafdnfllcvaD3QAqa4-61">
          <mxGeometry width="50" height="50" relative="1" as="geometry">
            <mxPoint x="390" y="270" as="sourcePoint" />
            <mxPoint x="390" y="410" as="targetPoint" />
          </mxGeometry>
        </mxCell>
        <mxCell id="zmLafdnfllcvaD3QAqa4-61" value="&lt;font style=&quot;font-size: 20px&quot;&gt;Mg&lt;/font&gt;" style="text;html=1;strokeColor=none;fillColor=none;align=center;verticalAlign=middle;whiteSpace=wrap;rounded=0;fontFamily=Times New Roman;" vertex="1" parent="1">
          <mxGeometry x="370" y="400" width="40" height="20" as="geometry" />
        </mxCell>
        <mxCell id="zmLafdnfllcvaD3QAqa4-62" value="&lt;font style=&quot;font-size: 20px&quot;&gt;mg&lt;/font&gt;" style="text;html=1;strokeColor=none;fillColor=none;align=center;verticalAlign=middle;whiteSpace=wrap;rounded=0;fontFamily=Times New Roman;" vertex="1" parent="1">
          <mxGeometry x="447" y="360.96000000000004" width="40" height="20" as="geometry" />
        </mxCell>
        <mxCell id="zmLafdnfllcvaD3QAqa4-65" value="&lt;font style=&quot;font-size: 18px&quot;&gt;mg sin&amp;nbsp;&lt;b style=&quot;color: rgb(32 , 33 , 36) ; text-align: left ; background-color: rgb(255 , 255 , 255)&quot;&gt;α&lt;/b&gt;&lt;/font&gt;" style="text;html=1;strokeColor=none;fillColor=none;align=center;verticalAlign=middle;whiteSpace=wrap;rounded=0;rotation=-15;fontFamily=Times New Roman;" vertex="1" parent="1">
          <mxGeometry x="310.17" y="214.59" width="75.43" height="20" as="geometry" />
        </mxCell>
        <mxCell id="zmLafdnfllcvaD3QAqa4-66" value="&lt;b style=&quot;color: rgb(32, 33, 36); text-align: left; background-color: rgb(255, 255, 255);&quot;&gt;&lt;font style=&quot;font-size: 16px&quot;&gt;α&lt;/font&gt;&lt;/b&gt;" style="text;html=1;strokeColor=none;fillColor=none;align=center;verticalAlign=middle;whiteSpace=wrap;rounded=0;fontFamily=Times New Roman;" vertex="1" parent="1">
          <mxGeometry x="250" y="310" width="40" height="20" as="geometry" />
        </mxCell>
        <mxCell id="zmLafdnfllcvaD3QAqa4-69" value="&lt;font style=&quot;font-size: 16px&quot;&gt;z&lt;/font&gt;" style="text;html=1;strokeColor=none;fillColor=none;align=center;verticalAlign=middle;whiteSpace=wrap;rounded=0;fontFamily=Times New Roman;" vertex="1" parent="1">
          <mxGeometry x="290" y="320" width="40" height="20" as="geometry" />
        </mxCell>
        <mxCell id="zmLafdnfllcvaD3QAqa4-70" value="&lt;font style=&quot;font-size: 20px&quot;&gt;d&lt;/font&gt;" style="text;html=1;strokeColor=none;fillColor=none;align=center;verticalAlign=middle;whiteSpace=wrap;rounded=0;rotation=-45;fontFamily=Times New Roman;" vertex="1" parent="1">
          <mxGeometry x="666" y="306" width="40" height="20" as="geometry" />
        </mxCell>
        <mxCell id="zmLafdnfllcvaD3QAqa4-71" value="&lt;b style=&quot;color: rgb(32, 33, 36); text-align: left; background-color: rgb(255, 255, 255);&quot;&gt;&lt;font style=&quot;font-size: 20px&quot;&gt;θ&lt;/font&gt;&lt;/b&gt;" style="text;html=1;strokeColor=none;fillColor=none;align=center;verticalAlign=middle;whiteSpace=wrap;rounded=0;fontFamily=Times New Roman;" vertex="1" parent="1">
          <mxGeometry x="680" y="326" width="40" height="20" as="geometry" />
        </mxCell>
      </root>
    </mxGraphModel>
  </diagram>
</mxfile>
